<svg id="visual" viewBox="0 0 900 100" width="900" height="100" xmlns="http://www.w3.org/2000/svg" xmlns:xlink="http://www.w3.org/1999/xlink" version="1.1"><rect x="0" y="0" width="900" height="100" fill="#fff"></rect><path d="M0 45L21.5 45C43 45 86 45 128.8 42.5C171.7 40 214.3 35 257.2 32.3C300 29.7 343 29.3 385.8 27.2C428.7 25 471.3 21 514.2 23.2C557 25.3 600 33.7 642.8 36.8C685.7 40 728.3 38 771.2 36.7C814 35.3 857 34.7 878.5 34.3L900 34L900 101L878.5 101C857 101 814 101 771.2 101C728.3 101 685.7 101 642.8 101C600 101 557 101 514.2 101C471.3 101 428.7 101 385.8 101C343 101 300 101 257.2 101C214.3 101 171.7 101 128.8 101C86 101 43 101 21.5 101L0 101Z" fill="#353535"></path><path d="M0 38L21.5 40.7C43 43.3 86 48.7 128.8 50.8C171.7 53 214.3 52 257.2 52.8C300 53.7 343 56.3 385.8 55.7C428.7 55 471.3 51 514.2 48.2C557 45.3 600 43.7 642.8 45.2C685.7 46.7 728.3 51.3 771.2 52.7C814 54 857 52 878.5 51L900 50L900 101L878.5 101C857 101 814 101 771.2 101C728.3 101 685.7 101 642.8 101C600 101 557 101 514.2 101C471.3 101 428.7 101 385.8 101C343 101 300 101 257.2 101C214.3 101 171.7 101 128.8 101C86 101 43 101 21.5 101L0 101Z" fill="#2f2f2f"></path><path d="M0 53L21.5 53.3C43 53.7 86 54.3 128.8 55.2C171.7 56 214.3 57 257.2 59.2C300 61.3 343 64.7 385.8 63.8C428.7 63 471.3 58 514.2 57.3C557 56.7 600 60.3 642.8 59C685.7 57.7 728.3 51.3 771.2 48.5C814 45.7 857 46.3 878.5 46.7L900 47L900 101L878.5 101C857 101 814 101 771.2 101C728.3 101 685.7 101 642.8 101C600 101 557 101 514.2 101C471.3 101 428.7 101 385.8 101C343 101 300 101 257.2 101C214.3 101 171.7 101 128.8 101C86 101 43 101 21.5 101L0 101Z" fill="#292929"></path><path d="M0 75L21.5 73.5C43 72 86 69 128.8 69C171.7 69 214.3 72 257.2 73.8C300 75.7 343 76.3 385.8 74.2C428.7 72 471.3 67 514.2 65.8C557 64.7 600 67.3 642.8 67.3C685.7 67.3 728.3 64.7 771.2 63.2C814 61.7 857 61.3 878.5 61.2L900 61L900 101L878.5 101C857 101 814 101 771.2 101C728.3 101 685.7 101 642.8 101C600 101 557 101 514.2 101C471.3 101 428.7 101 385.8 101C343 101 300 101 257.2 101C214.3 101 171.7 101 128.8 101C86 101 43 101 21.5 101L0 101Z" fill="#232323"></path><path d="M0 75L21.5 77.5C43 80 86 85 128.8 85.5C171.7 86 214.3 82 257.2 80.5C300 79 343 80 385.8 81.2C428.7 82.3 471.3 83.7 514.2 83.8C557 84 600 83 642.8 82.5C685.7 82 728.3 82 771.2 81.7C814 81.3 857 80.7 878.5 80.3L900 80L900 101L878.5 101C857 101 814 101 771.2 101C728.3 101 685.7 101 642.8 101C600 101 557 101 514.2 101C471.3 101 428.7 101 385.8 101C343 101 300 101 257.2 101C214.3 101 171.7 101 128.8 101C86 101 43 101 21.5 101L0 101Z" fill="#1d1d1d"></path></svg>