<svg id="visual" viewBox="0 0 900 100" width="900" height="100" xmlns="http://www.w3.org/2000/svg" xmlns:xlink="http://www.w3.org/1999/xlink" version="1.1"><rect x="0" y="0" width="900" height="100" fill="#1d1d1d"></rect><path d="M0 42L129 32L257 16L386 29L514 43L643 28L771 23L900 27L900 101L771 101L643 101L514 101L386 101L257 101L129 101L0 101Z" fill="#353535"></path><path d="M0 31L129 58L257 37L386 40L514 46L643 51L771 41L900 51L900 101L771 101L643 101L514 101L386 101L257 101L129 101L0 101Z" fill="#626262"></path><path d="M0 63L129 48L257 52L386 61L514 63L643 57L771 56L900 56L900 101L771 101L643 101L514 101L386 101L257 101L129 101L0 101Z" fill="#939393"></path><path d="M0 71L129 67L257 63L386 79L514 69L643 75L771 71L900 72L900 101L771 101L643 101L514 101L386 101L257 101L129 101L0 101Z" fill="#c8c8c8"></path><path d="M0 87L129 89L257 84L386 84L514 83L643 85L771 90L900 78L900 101L771 101L643 101L514 101L386 101L257 101L129 101L0 101Z" fill="#ffffff"></path></svg>