<svg id="visual" viewBox="0 0 1000 1000" width="1000" height="1000" xmlns="http://www.w3.org/2000/svg" xmlns:xlink="http://www.w3.org/1999/xlink" version="1.1"><path d="M0 61L83 61L83 121L167 121L167 151L250 151L250 71L333 71L333 121L417 121L417 61L500 61L500 131L583 131L583 131L667 131L667 141L750 141L750 81L833 81L833 71L917 71L917 131L1000 131L1000 51L1000 0L1000 0L917 0L917 0L833 0L833 0L750 0L750 0L667 0L667 0L583 0L583 0L500 0L500 0L417 0L417 0L333 0L333 0L250 0L250 0L167 0L167 0L83 0L83 0L0 0Z" fill="#ffffff"></path><path d="M0 161L83 161L83 161L167 161L167 211L250 211L250 181L333 181L333 221L417 221L417 181L500 181L500 241L583 241L583 181L667 181L667 191L750 191L750 171L833 171L833 161L917 161L917 251L1000 251L1000 131L1000 49L1000 129L917 129L917 69L833 69L833 79L750 79L750 139L667 139L667 129L583 129L583 129L500 129L500 59L417 59L417 119L333 119L333 69L250 69L250 149L167 149L167 119L83 119L83 59L0 59Z" fill="#dddde3"></path><path d="M0 231L83 231L83 281L167 281L167 301L250 301L250 271L333 271L333 321L417 321L417 301L500 301L500 321L583 321L583 241L667 241L667 281L750 281L750 281L833 281L833 251L917 251L917 341L1000 341L1000 211L1000 129L1000 249L917 249L917 159L833 159L833 169L750 169L750 189L667 189L667 179L583 179L583 239L500 239L500 179L417 179L417 219L333 219L333 179L250 179L250 209L167 209L167 159L83 159L83 159L0 159Z" fill="#bbbcc8"></path><path d="M0 381L83 381L83 511L167 511L167 571L250 571L250 481L333 481L333 551L417 551L417 651L500 651L500 501L583 501L583 431L667 431L667 501L750 501L750 611L833 611L833 521L917 521L917 581L1000 581L1000 471L1000 209L1000 339L917 339L917 249L833 249L833 279L750 279L750 279L667 279L667 239L583 239L583 319L500 319L500 299L417 299L417 319L333 319L333 269L250 269L250 299L167 299L167 279L83 279L83 229L0 229Z" fill="#9b9cad"></path><path d="M0 461L83 461L83 601L167 601L167 631L250 631L250 521L333 521L333 601L417 601L417 681L500 681L500 581L583 581L583 501L667 501L667 601L750 601L750 661L833 661L833 611L917 611L917 611L1000 611L1000 571L1000 469L1000 579L917 579L917 519L833 519L833 609L750 609L750 499L667 499L667 429L583 429L583 499L500 499L500 649L417 649L417 549L333 549L333 479L250 479L250 569L167 569L167 509L83 509L83 379L0 379Z" fill="#7b7d93"></path><path d="M0 581L83 581L83 731L167 731L167 711L250 711L250 651L333 651L333 721L417 721L417 761L500 761L500 761L583 761L583 681L667 681L667 721L750 721L750 781L833 781L833 761L917 761L917 781L1000 781L1000 731L1000 569L1000 609L917 609L917 609L833 609L833 659L750 659L750 599L667 599L667 499L583 499L583 579L500 579L500 679L417 679L417 599L333 599L333 519L250 519L250 629L167 629L167 599L83 599L83 459L0 459Z" fill="#5c5f7a"></path><path d="M0 651L83 651L83 811L167 811L167 761L250 761L250 681L333 681L333 761L417 761L417 791L500 791L500 791L583 791L583 751L667 751L667 751L750 751L750 851L833 851L833 821L917 821L917 811L1000 811L1000 781L1000 729L1000 779L917 779L917 759L833 759L833 779L750 779L750 719L667 719L667 679L583 679L583 759L500 759L500 759L417 759L417 719L333 719L333 649L250 649L250 709L167 709L167 729L83 729L83 579L0 579Z" fill="#3e4461"></path><path d="M0 681L83 681L83 841L167 841L167 801L250 801L250 731L333 731L333 841L417 841L417 861L500 861L500 841L583 841L583 821L667 821L667 831L750 831L750 891L833 891L833 851L917 851L917 881L1000 881L1000 821L1000 779L1000 809L917 809L917 819L833 819L833 849L750 849L750 749L667 749L667 749L583 749L583 789L500 789L500 789L417 789L417 759L333 759L333 679L250 679L250 759L167 759L167 809L83 809L83 649L0 649Z" fill="#21294a"></path><path d="M0 1001L83 1001L83 1001L167 1001L167 1001L250 1001L250 1001L333 1001L333 1001L417 1001L417 1001L500 1001L500 1001L583 1001L583 1001L667 1001L667 1001L750 1001L750 1001L833 1001L833 1001L917 1001L917 1001L1000 1001L1000 1001L1000 819L1000 879L917 879L917 849L833 849L833 889L750 889L750 829L667 829L667 819L583 819L583 839L500 839L500 859L417 859L417 839L333 839L333 729L250 729L250 799L167 799L167 839L83 839L83 679L0 679Z" fill="#001133"></path></svg>